<svg viewBox="0 0 500 500" xmlns="http://www.w3.org/2000/svg">
  <defs>
    <filter id="inner-shadow-filter-0" color-interpolation-filters="sRGB" x="-50%" y="-50%" width="200%" height="200%">
      <feOffset dx="0" dy="0"/>
      <feGaussianBlur stdDeviation="10"/>
      <feComposite operator="out" in="SourceGraphic"/>
      <feComponentTransfer result="choke">
        <feFuncA type="linear" slope="1"/>
      </feComponentTransfer>
      <feFlood flood-color="rgba(0,0,0,0.7)" result="color"/>
      <feComposite operator="in" in="color" in2="choke" result="shadow"/>
      <feComposite operator="over" in="shadow" in2="SourceGraphic"/>
    </filter>
  </defs>
  <g>
    <ellipse style="filter: url('#inner-shadow-filter-0'); fill: rgb(255, 0, 0);" cx="250" cy="250" rx="150" ry="150"/>
    <ellipse style="mix-blend-mode: screen; fill: rgb(255, 255, 255); fill-opacity: 0.8;" cx="192.55" cy="152.567" rx="21.675" ry="21.254"/>
    <ellipse style="mix-blend-mode: screen; fill: rgb(255, 255, 255); fill-opacity: 0.8;" cx="156.144" cy="188.388" rx="8.418" ry="8.254"/>
  </g>
  <g style="visibility: hidden;">
    <path style="mix-blend-mode: hard-light; fill: rgb(255, 247, 0);" transform="matrix(0.470493, 0, 0, 0.470493, -65.45414, -74.417847)" d="M 887.5 346.22 L 887.5 346.22 L 902.3 408.7 A 20.93 20.93 0 0 1 902.3 408.7 L 964.78 423.5 L 964.78 423.5 L 902.3 438.3 A 20.93 20.93 0 0 1 902.3 438.3 L 887.5 500.78 L 887.5 500.78 L 872.7 438.3 A 20.93 20.93 0 0 1 872.7 438.3 L 810.22 423.5 L 810.22 423.5 L 872.7 408.7 A 20.93 20.93 0 0 1 872.7 408.7 Z M 887.5 423.5 A 0 0 0 0 0 887.5 423.5 A 0 0 0 0 0 887.5 423.5"/>
    <path style="mix-blend-mode: hard-light; fill: rgb(255, 247, 0);" transform="matrix(0.470493, 0, 0, 0.470493, -108.559792, 144.858261)" d="M 887.5 346.22 L 887.5 346.22 L 902.3 408.7 A 20.93 20.93 0 0 1 902.3 408.7 L 964.78 423.5 L 964.78 423.5 L 902.3 438.3 A 20.93 20.93 0 0 1 902.3 438.3 L 887.5 500.78 L 887.5 500.78 L 872.7 438.3 A 20.93 20.93 0 0 1 872.7 438.3 L 810.22 423.5 L 810.22 423.5 L 872.7 408.7 A 20.93 20.93 0 0 1 872.7 408.7 Z M 887.5 423.5 A 0 0 0 0 0 887.5 423.5 A 0 0 0 0 0 887.5 423.5"/>
    <path style="mix-blend-mode: hard-light; fill: rgb(255, 247, 0);" transform="matrix(0.470493, 0, 0, 0.470493, -304.687714, 64.386475)" d="M 887.5 346.22 L 887.5 346.22 L 902.3 408.7 A 20.93 20.93 0 0 1 902.3 408.7 L 964.78 423.5 L 964.78 423.5 L 902.3 438.3 A 20.93 20.93 0 0 1 902.3 438.3 L 887.5 500.78 L 887.5 500.78 L 872.7 438.3 A 20.93 20.93 0 0 1 872.7 438.3 L 810.22 423.5 L 810.22 423.5 L 872.7 408.7 A 20.93 20.93 0 0 1 872.7 408.7 Z M 887.5 423.5 A 0 0 0 0 0 887.5 423.5 A 0 0 0 0 0 887.5 423.5"/>
  </g>
</svg>